<?xml version="1.0" standalone="no"?><!DOCTYPE svg PUBLIC "-//W3C//DTD SVG 1.1//EN" "http://www.w3.org/Graphics/SVG/1.1/DTD/svg11.dtd"><svg t="1688709863730" class="icon" viewBox="0 0 1024 1024" version="1.1" xmlns="http://www.w3.org/2000/svg" p-id="1614" xmlns:xlink="http://www.w3.org/1999/xlink" width="200" height="200"><path d="M699.540378 751.244143c-7.843972-18.670287-24.491985-30.803931-43.080564-33.88841l-38.423206-89.776708C725.911648 573.386167 800.020839 461.752558 800.020839 332.776418 800.020839 150.608344 652.292704 2.921062 470.145057 2.921062c-182.147647 0-329.834929 147.687281-329.834929 329.855356 0 182.188501 147.687281 329.855356 329.834929 329.855356 31.089909 0 61.178895-4.391807 89.674573-12.440049l39.68968 92.534354c-9.641549 15.136414-12.011082 34.521647-4.555223 52.313573l81.299499 194.179156c12.113217 28.863365 45.286681 42.447327 74.170473 30.374963 28.883792-12.09279 42.488181-45.286681 30.415818-74.190899l-81.299499-194.158729zM239.074721 332.776418c0-127.607531 103.442378-231.049909 231.049909-231.049909s231.049909 103.442378 231.049909 231.049909-103.442378 231.029482-231.049909 231.029482-231.049909-103.421951-231.049909-231.029482z" p-id="1615"></path><path d="M474.577718 148.300092c-104.708853 0-189.562652 84.853799-189.562652 189.542224 0 1.143913 0.163416 2.267398 0.163416 3.411311h0.388113c0.388113 16.566305 13.86994 29.905142 30.53838 29.905143s30.088986-13.338837 30.53838-29.905143h0.224697c-0.061281-1.143913-0.163416-2.267398-0.163416-3.411311 0-70.616173 57.236482-127.873082 127.893509-127.873081v-0.469822c16.893137 0 30.579234-13.706524 30.579234-30.59966-0.020427-16.893137-13.726951-30.599661-30.599661-30.599661z" p-id="1616"></path></svg>